<?xml version="1.0" encoding="utf-8"?>
<svg version="1.1" xmlns:xlink="http://www.w3.org/1999/xlink" width="106px" height="106px" xmlns="http://www.w3.org/2000/svg">
  <defs>
    <mask fill="white" id="clip4">
      <path d="M 53 0  C 82.2710912044156 0  106 23.7289087955844  106 53  C 106 82.2710912044156  82.2710912044156 106  53 106  C 23.7289087955844 106  0 82.2710912044156  0 53  C 0 23.7289087955844  23.7289087955844 0  53 0  Z " fill-rule="evenodd" />
    </mask>
  </defs>
  <g transform="matrix(1 0 0 1 -855 -371 )">
    <path d="M 53 0  C 82.2710912044156 0  106 23.7289087955844  106 53  C 106 82.2710912044156  82.2710912044156 106  53 106  C 23.7289087955844 106  0 82.2710912044156  0 53  C 0 23.7289087955844  23.7289087955844 0  53 0  Z " fill-rule="nonzero" fill="#ffffff" stroke="none" fill-opacity="0" transform="matrix(1 0 0 1 855 371 )" />
    <path d="M 53 0  C 82.2710912044156 0  106 23.7289087955844  106 53  C 106 82.2710912044156  82.2710912044156 106  53 106  C 23.7289087955844 106  0 82.2710912044156  0 53  C 0 23.7289087955844  23.7289087955844 0  53 0  Z " stroke-width="33.0810813903809" stroke="#000000" fill="none" stroke-opacity="0.870588235294118" transform="matrix(1 0 0 1 855 371 )" mask="url(#clip4)" />
  </g>
</svg>