<?xml version="1.0" encoding="utf-8"?>
<svg version="1.1" xmlns:xlink="http://www.w3.org/1999/xlink" width="907px" height="907px" xmlns="http://www.w3.org/2000/svg">
  <defs>
    <mask fill="white" id="clip1">
      <path d="M 453.5 0  C 703.961139217055 0  907 203.038860782945  907 453.5  C 907 703.961139217055  703.961139217055 907  453.5 907  C 203.038860782945 907  0 703.961139217055  0 453.5  C 0 203.038860782945  203.038860782945 0  453.5 0  Z " fill-rule="evenodd" />
    </mask>
  </defs>
  <g transform="matrix(1 0 0 1 -59 -345 )">
    <path d="M 453.5 0  C 703.961139217055 0  907 203.038860782945  907 453.5  C 907 703.961139217055  703.961139217055 907  453.5 907  C 203.038860782945 907  0 703.961139217055  0 453.5  C 0 203.038860782945  203.038860782945 0  453.5 0  Z " fill-rule="nonzero" fill="#ffffff" stroke="none" fill-opacity="0" transform="matrix(1 0 0 1 59 345 )" />
    <path d="M 453.5 0  C 703.961139217055 0  907 203.038860782945  907 453.5  C 907 703.961139217055  703.961139217055 907  453.5 907  C 203.038860782945 907  0 703.961139217055  0 453.5  C 0 203.038860782945  203.038860782945 0  453.5 0  Z " stroke-width="49.6216201782227" stroke="#fa1a01" fill="none" transform="matrix(1 0 0 1 59 345 )" mask="url(#clip1)" />
  </g>
</svg>