<?xml version="1.0" encoding="utf-8"?>
<svg version="1.1" xmlns:xlink="http://www.w3.org/1999/xlink" width="41px" height="41px" xmlns="http://www.w3.org/2000/svg">
  <defs>
    <mask fill="white" id="clip3">
      <path d="M 20.5 0  C 31.821837071353 0  41 9.17816292864701  41 20.5  C 41 31.821837071353  31.821837071353 41  20.5 41  C 9.17816292864701 41  0 31.821837071353  0 20.5  C 0 9.17816292864701  9.17816292864701 0  20.5 0  Z " fill-rule="evenodd" />
    </mask>
  </defs>
  <g transform="matrix(1 0 0 1 -857 -56 )">
    <path d="M 20.5 0  C 31.821837071353 0  41 9.17816292864701  41 20.5  C 41 31.821837071353  31.821837071353 41  20.5 41  C 9.17816292864701 41  0 31.821837071353  0 20.5  C 0 9.17816292864701  9.17816292864701 0  20.5 0  Z " fill-rule="nonzero" fill="#ffffff" stroke="none" fill-opacity="0" transform="matrix(1 0 0 1 857 56 )" />
    <path d="M 20.5 0  C 31.821837071353 0  41 9.17816292864701  41 20.5  C 41 31.821837071353  31.821837071353 41  20.5 41  C 9.17816292864701 41  0 31.821837071353  0 20.5  C 0 9.17816292864701  9.17816292864701 0  20.5 0  Z " stroke-width="16.5405406951904" stroke="#000000" fill="none" stroke-opacity="0.870588235294118" transform="matrix(1 0 0 1 857 56 )" mask="url(#clip3)" />
  </g>
</svg>