<?xml version="1.0" encoding="utf-8"?>
<svg version="1.1" xmlns:xlink="http://www.w3.org/1999/xlink" width="42px" height="38px" xmlns="http://www.w3.org/2000/svg">
  <g transform="matrix(1 0 0 1 -915 -57 )">
    <path d="M 6.59522033727803 0.126090354655464  C 10.4644326755725 -0.657132302524074  11.3123403333216 2.46868767456161  15.7024498077302 2.36390178666327  C 19.22356096312 2.28003120240463  22.271633249947 -0.623500128924113  25.1857456464423 1.49556048056499  C 25.9518461026586 2.05264718224792  28.729931817347 6.29949879242851  29.42915909318 6.90480641255311  C 30.377245843843 7.72554687040699  38.3863700557356 3.69129702870224  41.4037821066827 9.82388917951652  C 45.1754940367797 17.489521380213  29.6001862121457 16.9865576702028  35.1348955427542 28.1238493004069  C 36.6847974037214 31.2426597845679  36.2414333945728 37.2889736210695  34.2087358788561 37.9425642354375  C 32.1961393353317 38.5896917443051  26.8379761607676 33.5508083159637  22.2124675358813 33.7510190121314  C 16.0556765848379 34.017509798667  14.9595982537409 39.1254518256784  9.19882447580127 36.9757196943625  C 2.49204063556458 31.4746008879208  8.93758526228008 31.3083023942815  1.30505886509502 18.530594594532  C -2.75732087675573 11.7297531704182  3.69953119647412 0.448385825371831  6.59522033727803 0.126090354655464  Z " fill-rule="nonzero" fill="#000000" stroke="none" fill-opacity="0.870588235294118" transform="matrix(1 0 0 1 915 57 )" />
  </g>
</svg>