<?xml version="1.0" encoding="utf-8"?>
<svg version="1.1" xmlns:xlink="http://www.w3.org/1999/xlink" width="71px" height="63px" xmlns="http://www.w3.org/2000/svg">
  <g transform="matrix(1 0 0 1 250 -359 )">
    <path d="M 11.1490629511129 0.209044535349848  C 17.6898742848963 -1.0894561857636  19.1232419920436 4.09282430256266  26.5446175321153 3.91910033052069  C 32.4969721043219 3.78005173030241  37.6496657320533 -1.03369758216366  42.5759033547 2.47948184935775  C 43.8709779354468 3.4030729600426  48.5672656912294 10.4439058927104  49.7492927527567 11.4474422102854  C 51.3520108312584 12.8081434956747  64.8912446180292 6.11978191600635  69.9921078470112 16.2869741660405  C 76.3680970621752 28.9957854461426  50.0384100252939 28.161924558494  59.3947043698941 46.6263817348851  C 62.0147765634339 51.7970412217835  61.265280262254 61.8211931086152  57.8290535094949 62.9047775482254  C 54.4268069716321 63.9776468392427  45.3689597003452 55.6237085238345  37.5496475011328 55.9556367832705  C 27.1417389886546 56.3974504556847  25.2888446670382 64.8658806583615  15.5503937567117 61.3018510722325  C 4.21273536012108 52.1815751562897  15.1087750862354 51.9058697589404  2.20617093861301 30.7217752488293  C -4.6611852916585 19.4466960456933  6.25396940356339 0.743376499958562  11.1490629511129 0.209044535349848  Z " fill-rule="nonzero" fill="#fa1a01" stroke="none" transform="matrix(1 0 0 1 -250 359 )" />
  </g>
</svg>