<?xml version="1.0" encoding="utf-8"?>
<svg version="1.1" xmlns:xlink="http://www.w3.org/1999/xlink" width="171px" height="151px" xmlns="http://www.w3.org/2000/svg">
  <defs>
    <mask fill="white" id="clip2">
      <path d="M 26.8519685160606 0.501043251394079  C 42.6051901791165 -2.61123625476672  46.0573856428093 9.80978523312639  63.9314027886158 9.39339920489879  C 78.2673553498458 9.06012398850261  90.677363946213 -2.47759261756687  102.541964417658 5.94288506750826  C 105.661087703682 8.15657169787988  116.971865256341 25.0322188857028  119.81871916509 27.4375202183031  C 123.678786649932 30.6988836166172  156.287363798352 14.6680487193168  168.572541434351 39.0370333186051  C 183.928797149746 69.4978349582148  120.515043863736 67.4992160052794  143.049217566928 111.755295904248  C 149.35953228658 124.148463880783  147.554407392189 148.174605704776  139.278424649628 150.771768409239  C 131.084281579565 153.343248773423  109.268902940268 133.32031725554  90.4364749675169 134.11589133768  C 65.3695403811258 135.174841568387  60.9069357473736 155.472190149406  37.4523567943337 146.929833522335  C 10.1461654447987 125.070124580948  36.3887399964261 124.40930688254  5.31345395074401 73.634731151956  C -11.2262349982198 46.6103349666617  15.0623770142161 1.78174367450385  26.8519685160606 0.501043251394079  Z " fill-rule="evenodd" />
    </mask>
  </defs>
  <g transform="matrix(1 0 0 1 -91 -1024 )">
    <path d="M 26.8519685160606 0.501043251394079  C 42.6051901791165 -2.61123625476672  46.0573856428093 9.80978523312639  63.9314027886158 9.39339920489879  C 78.2673553498458 9.06012398850261  90.677363946213 -2.47759261756687  102.541964417658 5.94288506750826  C 105.661087703682 8.15657169787988  116.971865256341 25.0322188857028  119.81871916509 27.4375202183031  C 123.678786649932 30.6988836166172  156.287363798352 14.6680487193168  168.572541434351 39.0370333186051  C 183.928797149746 69.4978349582148  120.515043863736 67.4992160052794  143.049217566928 111.755295904248  C 149.35953228658 124.148463880783  147.554407392189 148.174605704776  139.278424649628 150.771768409239  C 131.084281579565 153.343248773423  109.268902940268 133.32031725554  90.4364749675169 134.11589133768  C 65.3695403811258 135.174841568387  60.9069357473736 155.472190149406  37.4523567943337 146.929833522335  C 10.1461654447987 125.070124580948  36.3887399964261 124.40930688254  5.31345395074401 73.634731151956  C -11.2262349982198 46.6103349666617  15.0623770142161 1.78174367450385  26.8519685160606 0.501043251394079  Z " fill-rule="nonzero" fill="#ffffff" stroke="none" fill-opacity="0" transform="matrix(1 0 0 1 91 1024 )" />
    <path d="M 26.8519685160606 0.501043251394079  C 42.6051901791165 -2.61123625476672  46.0573856428093 9.80978523312639  63.9314027886158 9.39339920489879  C 78.2673553498458 9.06012398850261  90.677363946213 -2.47759261756687  102.541964417658 5.94288506750826  C 105.661087703682 8.15657169787988  116.971865256341 25.0322188857028  119.81871916509 27.4375202183031  C 123.678786649932 30.6988836166172  156.287363798352 14.6680487193168  168.572541434351 39.0370333186051  C 183.928797149746 69.4978349582148  120.515043863736 67.4992160052794  143.049217566928 111.755295904248  C 149.35953228658 124.148463880783  147.554407392189 148.174605704776  139.278424649628 150.771768409239  C 131.084281579565 153.343248773423  109.268902940268 133.32031725554  90.4364749675169 134.11589133768  C 65.3695403811258 135.174841568387  60.9069357473736 155.472190149406  37.4523567943337 146.929833522335  C 10.1461654447987 125.070124580948  36.3887399964261 124.40930688254  5.31345395074401 73.634731151956  C -11.2262349982198 46.6103349666617  15.0623770142161 1.78174367450385  26.8519685160606 0.501043251394079  Z " stroke-width="49.6216201782227" stroke="#000000" fill="none" stroke-opacity="0.870588235294118" transform="matrix(1 0 0 1 91 1024 )" mask="url(#clip2)" />
  </g>
</svg>